# xmcd CD database file
#
# Track frame offsets:
#	150
#	16692
#	35016
#	66766
#	84015
#	109922
#	135579
#	157944
#	179641
#
# Disc length: 3454 seconds
#
# Revision: 0
# Processed by: cddbd v1.4PL0 Copyright (c) Steve Scherf et al.
# Submitted via: CDex 1.50beta9
#
DISCID=680d7c09
DTITLE=Double Famous - Esperanto
DYEAR=2000
DGENRE=Jazz
TTITLE0=Mandrill
TTITLE1=Kananaskis Moon
TTITLE2=Kakio
TTITLE3=Jump Up
TTITLE4=Zeze
TTITLE5=Conga Habanera
TTITLE6=Pasapareca
TTITLE7=Orca
TTITLE8=Africa
EXTD=YEAR: 2000
EXTT0=
EXTT1=
EXTT2=
EXTT3=
EXTT4=
EXTT5=
EXTT6=
EXTT7=
EXTT8=
PLAYORDER=
